<svg width="24" height="24" viewBox="0 0 24 24" fill="none" xmlns="http://www.w3.org/2000/svg">
<path d="M12.249 6.8125V2H8.81152C8.26451 2 7.73991 2.2173 7.35312 2.60409C6.96632 2.99089 6.74902 3.51549 6.74902 4.0625V16.4375C6.74902 16.9845 6.96632 17.5091 7.35312 17.8959C7.73991 18.2827 8.26451 18.5 8.81152 18.5H17.0629C17.6099 18.5 18.1345 18.2827 18.5213 17.8959C18.9081 17.5091 19.1254 16.9845 19.1254 16.4375V8.875H14.3101C13.7631 8.875 13.2385 8.6577 12.8517 8.27091C12.4649 7.88411 12.2476 7.35951 12.2476 6.8125H12.249Z" fill="#67B6FF"/>
<path d="M13.624 6.8125V2.34375L18.7803 7.5H14.3115C14.1292 7.5 13.9543 7.42757 13.8254 7.29864C13.6965 7.1697 13.624 6.99484 13.624 6.8125Z" fill="#67B6FF"/>
<path d="M4 6.125C4 5.76033 4.14487 5.41059 4.40273 5.15273C4.66059 4.89487 5.01033 4.75 5.375 4.75V16.4375C5.375 17.3492 5.73716 18.2235 6.38182 18.8682C7.02648 19.5128 7.90082 19.875 8.8125 19.875H16.375C16.375 20.2397 16.2301 20.5894 15.9723 20.8473C15.7144 21.1051 15.3647 21.25 15 21.25H8.8895C7.59272 21.25 6.34906 20.7349 5.4321 19.8179C4.51514 18.9009 4 17.6573 4 16.3605V6.125Z" fill="#67B6FF"/>
</svg>
