<svg width="37" height="37" viewBox="0 0 37 37" fill="none" xmlns="http://www.w3.org/2000/svg">
<circle cx="18.5" cy="18.5" r="18.5" fill="#E1F0FF"/>
<circle cx="18.5" cy="18.5" r="18.25" stroke="#0084FF" stroke-opacity="0.2" stroke-width="0.5"/>
<path d="M24.8337 13.7507C24.8337 12.0343 21.9338 10.584 18.5003 10.584C15.0669 10.584 12.167 12.0343 12.167 13.7507V15.334C12.167 17.0503 15.0669 18.5007 18.5003 18.5007C21.9338 18.5007 24.8337 17.0503 24.8337 15.334V13.7507ZM18.5003 24.0423C15.0669 24.0423 12.167 22.592 12.167 20.8757V23.2507C12.167 24.967 15.0669 26.4173 18.5003 26.4173C21.9338 26.4173 24.8337 24.967 24.8337 23.2507V20.8757C24.8337 22.592 21.9338 24.0423 18.5003 24.0423Z" fill="#0084FF"/>
<path d="M24.8337 16.916C24.8337 18.6323 21.9338 20.0827 18.5003 20.0827C15.0669 20.0827 12.167 18.6323 12.167 16.916V19.291C12.167 21.0073 15.0669 22.4577 18.5003 22.4577C21.9338 22.4577 24.8337 21.0073 24.8337 19.291V16.916Z" fill="#0084FF"/>
</svg>
