<svg width="52" height="52" viewBox="0 0 52 52" fill="none" xmlns="http://www.w3.org/2000/svg">
<path d="M52 26C52 40.3592 40.3592 52 26 52C11.6422 52 0 40.3592 0 26C0 11.6422 11.6422 0 26 0C40.3592 0 52 11.6422 52 26Z" fill="#FFCC4D"/>
<path d="M10.1111 30.7131C10.1111 36.4389 16.7498 43.7131 26 43.7131C35.2502 43.7131 41.8889 36.4909 41.8889 30.7131C41.8889 30.7131 26.9634 34.694 10.1111 30.7131Z" fill="#664500"/>
<path d="M17.3333 33.2266V43.2813C17.3333 47.6147 20.2222 51.948 26 51.948C31.7778 51.948 34.6666 47.6147 34.6666 43.2813V33.2858C25.5796 35.152 17.3333 33.2266 17.3333 33.2266Z" fill="#5D9040"/>
<path d="M17.7424 17.8102C16.6504 17.3884 15.6176 16.9898 15.6176 16.412C15.6176 15.4601 16.8945 15.411 17.1502 15.411C18.053 15.411 18.5022 15.749 18.898 16.048C19.2013 16.2776 19.5162 16.5145 19.9538 16.5145C20.7685 16.5145 21.1397 15.9411 21.1397 15.4081C21.1397 14.345 19.8368 13.5939 18.456 13.279V12.7113C18.456 11.9631 17.8478 11.355 17.0996 11.355C16.3514 11.355 15.7433 11.9631 15.7433 12.7113V13.3266C14.0908 13.8076 13.0783 15.0224 13.0783 16.555C13.0783 18.4486 14.946 19.2258 16.5941 19.9104C17.7742 20.4015 18.8893 20.8652 18.8893 21.5889C18.8893 22.1175 18.2248 22.6895 17.1516 22.6895C16.0683 22.6895 15.4472 22.2562 14.8983 21.8749C14.5198 21.6105 14.1616 21.3606 13.7341 21.3606C13.113 21.3606 12.6276 21.8835 12.6276 22.5509C12.6276 23.5316 13.9724 24.5095 15.7433 24.8533V25.5322C15.7433 26.2804 16.3514 26.8871 17.0996 26.8871C17.8478 26.8871 18.456 26.279 18.456 25.5322L18.4487 24.8129C20.3207 24.3579 21.4272 23.0478 21.4272 21.261C21.4286 19.233 19.3847 18.4443 17.7424 17.8102ZM38.5568 21.2855C38.5568 19.2575 36.513 18.4689 34.8706 17.8348C33.7786 17.413 32.7473 17.0143 32.7473 16.4365C32.7473 15.4846 34.0242 15.4355 34.2798 15.4355C35.1826 15.4355 35.6304 15.7735 36.0276 16.0725C36.3324 16.3022 36.6458 16.5391 37.0821 16.5391C37.8982 16.5391 38.2694 15.9656 38.2694 15.4326C38.2694 14.3681 36.9665 13.6184 35.5856 13.3035V12.7373C35.5856 11.9891 34.9761 11.381 34.2293 11.381C33.4811 11.381 32.8715 11.9891 32.8715 12.7373V13.3526C31.2205 13.8336 30.2065 15.0484 30.2065 16.581C30.2065 18.4746 32.0742 19.2518 33.7223 19.9364C34.9024 20.4275 36.0175 20.8912 36.0175 21.6149C36.0175 22.1435 35.3545 22.7155 34.2813 22.7155C33.198 22.7155 32.5768 22.2822 32.0294 21.9009C31.6495 21.6365 31.2913 21.3866 30.8652 21.3866C30.2426 21.3866 29.7573 21.9095 29.7573 22.5769C29.7573 23.5576 31.1021 24.5355 32.8715 24.8793V25.5582C32.8715 26.305 33.4825 26.9131 34.2307 26.9131C34.979 26.9131 35.5856 26.305 35.5856 25.5582L35.5813 24.8389C37.4518 24.381 38.5568 23.0723 38.5568 21.2855Z" fill="#664500"/>
<path d="M30.289 44.8775C30.289 42.9015 28.2971 42.1317 26.6967 41.5134C25.6321 41.1032 24.6253 40.7132 24.6253 40.1513C24.6253 39.2225 25.869 39.1763 26.1189 39.1763C26.9985 39.1763 27.4362 39.5071 27.8233 39.7974C28.1194 40.0213 28.4271 40.2524 28.8532 40.2524C29.6477 40.2524 30.0102 39.692 30.0102 39.1734C30.0102 38.1378 28.7405 37.4054 27.3929 37.0978V36.5445C27.3929 35.8151 26.7992 35.2214 26.0698 35.2214C25.3403 35.2214 24.7467 35.8151 24.7467 36.5445V37.144C23.1361 37.612 22.1481 38.7979 22.1481 40.2914C22.1481 42.1374 23.9695 42.8958 25.5758 43.5631C26.727 44.0412 27.8132 44.4933 27.8132 45.1982C27.8132 45.7139 27.1661 46.2714 26.1189 46.2714C25.063 46.2714 24.4578 45.8497 23.9233 45.4755C23.555 45.2184 23.2054 44.9743 22.7894 44.9743C22.1842 44.9743 21.709 45.4857 21.709 46.1357C21.709 47.0933 23.0191 48.0452 24.7452 48.3803V49.0433C24.7452 49.7713 25.3389 50.3635 26.0698 50.3635C26.7992 50.3635 27.3914 49.7713 27.3914 49.0433L27.3871 48.3413C29.2114 47.895 30.289 46.6181 30.289 44.8775Z" fill="white"/>
</svg>
