<svg width="24" height="24" viewBox="0 0 24 24" fill="none" xmlns="http://www.w3.org/2000/svg">
<path d="M5.7512 21.9997H17.5959C18.4185 21.9997 19.0854 21.3328 19.0854 20.5103V13.0625H4.26172V20.5103C4.26172 21.3328 4.92863 21.9997 5.7512 21.9997Z" fill="#D1E9FF"/>
<path d="M3.33594 10.3006V12.2998H20.0118V10.3006C20.0118 9.47801 19.3448 8.8111 18.5223 8.8111H14.1622C16.233 8.8111 19.2104 6.80142 18.558 4.67035C18.0133 2.89005 16.3782 1.98966 14.7074 2.00009C12.3484 2.01349 11.737 6.95893 11.737 6.95893H11.6737C11.6737 6.95893 11.0626 2.01349 8.70327 2.00009C7.03208 1.98966 5.39738 2.89005 4.8526 4.67035C4.19983 6.80142 7.17767 8.8111 9.24917 8.8111H4.82542C4.00285 8.8111 3.33594 9.47801 3.33594 10.3006ZM16.4422 3.79752C16.4422 3.79752 16.3692 6.23132 13.0987 8.04886C13.0991 8.04886 13.7169 4.92431 16.4422 3.79752ZM6.99596 3.79752C9.72058 4.92394 10.3383 8.04886 10.3383 8.04886C7.06857 6.23132 6.99596 3.79752 6.99596 3.79752Z" fill="#0084FF"/>
</svg>
