<svg width="84" height="111" viewBox="0 0 84 111" fill="none" xmlns="http://www.w3.org/2000/svg">
<path d="M45.0459 56.4681C45.0459 56.4681 48.9825 57.8514 55.0701 58.8264C62.8396 60.0695 74.5031 60.0695 76.447 55.8527C78.0436 52.3914 70.6153 35.5117 65.9109 35.5117C62.4984 35.5117 60.9689 37.8334 56.3315 43.0192C51.6942 48.205 45.0459 56.4681 45.0459 56.4681Z" fill="#CEE6FF"/>
<path d="M53.7129 51.9633C53.7129 51.9633 60.5988 42.3108 64.5415 39.3858C66.4793 37.9537 68.3866 39.8794 67.0338 42.0304C65.742 44.1023 53.7129 51.9633 53.7129 51.9633Z" fill="white"/>
<path d="M44.9782 56.4669C44.9782 56.4669 41.0417 57.8502 34.954 58.8252C27.1845 60.0683 15.5211 60.0683 13.5772 55.8514C11.9928 52.3841 19.415 35.5044 24.1193 35.5044C27.5318 35.5044 29.0614 37.8261 33.6987 43.0119C38.3361 48.1977 44.9782 56.4669 44.9782 56.4669Z" fill="#CEE6FF"/>
<path d="M36.3224 51.9633C36.3224 51.9633 29.4364 42.3108 25.4938 39.3858C23.556 37.9537 21.6486 39.8794 23.0014 42.0304C24.2933 44.1023 36.3224 51.9633 36.3224 51.9633Z" fill="white"/>
<path opacity="0.2" d="M65.9109 37.3325C66.2217 37.3325 67.4343 37.9236 69.2929 40.617C73.0954 46.1441 75.3075 53.7064 74.7834 55.0775C74.2228 56.2902 71.0967 57.71 64.1193 57.71C61.2796 57.71 58.1718 57.4602 55.3565 57.0153C52.3584 56.5339 49.8843 55.9489 48.1842 55.4919C50.4632 52.701 54.5582 47.7285 57.6904 44.2306C58.3059 43.542 58.8665 42.9083 59.3845 42.3233C62.7909 38.4477 63.8634 37.3325 65.9109 37.3325ZM65.9109 35.5044C62.4984 35.5044 60.9689 37.8261 56.3315 43.0119C51.6942 48.1977 45.0459 56.4669 45.0459 56.4669C45.0459 56.4669 48.9825 57.8502 55.0701 58.8252C57.8001 59.2639 61.0176 59.5442 64.1193 59.5442C69.8414 59.5442 75.1856 58.5814 76.447 55.8514C78.0375 52.3841 70.6153 35.5044 65.9109 35.5044Z" fill="#424242"/>
<path opacity="0.2" d="M24.1138 37.3325C26.1613 37.3325 27.2338 38.4477 30.6402 42.3172C31.1582 42.9022 31.7188 43.542 32.3343 44.2245C35.4665 47.7224 39.5615 52.6949 41.8406 55.4858C40.1404 55.9428 37.6663 56.5278 34.6682 57.0092C31.8529 57.4602 28.7451 57.7039 25.9054 57.7039C18.9281 57.7039 15.802 56.2841 15.2413 55.0775C14.7173 53.7003 16.9232 46.1319 20.7318 40.611C22.5843 37.9236 23.8031 37.3325 24.1138 37.3325ZM24.1138 35.5044C19.4095 35.5044 11.9873 52.3841 13.5777 55.8453C14.8392 58.5814 20.1834 59.5381 25.9054 59.5381C29.0071 59.5381 32.2185 59.2578 34.9546 58.8191C41.0423 57.8502 44.9788 56.4608 44.9788 56.4608C44.9788 56.4608 38.3366 48.1916 33.6993 43.0058C29.062 37.82 27.5263 35.5044 24.1138 35.5044Z" fill="#424242"/>
<path d="M45.0444 47.7773C39.7794 47.7773 35.5016 52.5731 35.2578 57.375H54.837C54.5872 52.5731 50.3033 47.7773 45.0444 47.7773Z" fill="#0084FF"/>
<path opacity="0.2" d="M45.0444 49.6055C48.6336 49.6055 51.6134 52.4573 52.6372 55.5469H37.4516C38.4753 52.4573 41.4552 49.6055 45.0444 49.6055ZM45.0444 47.7773C39.7794 47.7773 35.5016 52.5731 35.2578 57.375H54.837C54.5872 52.5731 50.3033 47.7773 45.0444 47.7773Z" fill="#424242"/>
<path d="M74.303 108.569H15.6934L13.2559 64.1636H76.7405L74.303 108.569Z" fill="#0084FF"/>
<path opacity="0.2" d="M74.8088 65.9917L72.5724 106.747H17.424L15.1876 65.9917H74.8088ZM76.7405 64.1636H13.2559L15.6934 108.575H74.3091L76.7405 64.1636Z" fill="#424242"/>
<path d="M80.2817 69.208H10.2097C10.1022 69.2093 9.99692 69.1772 9.90847 69.1161C9.82002 69.0549 9.7528 68.9678 9.71612 68.8667C8.15003 64.3147 8.19269 59.3909 9.83191 54.8633H80.2817C81.8722 59.397 81.9149 64.3025 80.3975 68.8667L80.2817 69.208Z" fill="#0084FF"/>
<path opacity="0.2" d="M78.9326 56.6914C79.9198 60.1858 79.9198 63.8854 78.9326 67.3798H11.1519C10.1403 63.8888 10.1403 60.1824 11.1519 56.6914H78.9326ZM80.2733 54.8633H9.82343C8.18028 59.3797 8.1394 64.3237 9.70765 68.8667C9.78077 69.0739 9.97577 69.208 10.2012 69.208H80.2733L80.3891 68.8606C81.9054 64.3114 81.8647 59.3868 80.2733 54.8633Z" fill="#424242"/>
<path d="M37.2012 54.8633H53.0449V108.769H37.2012V54.8633Z" fill="url(#paint0_linear_222:0)"/>
<path opacity="0.2" d="M51.2168 56.6914V106.94H39.0293V56.6914H51.2168ZM53.0449 54.8633H37.2012V108.769H53.0449V54.8633Z" fill="#424242"/>
<path d="M45.6679 16.8655C45.5854 17.2092 45.3718 17.5123 45.0463 17.6955C44.0194 18.2748 42.9689 18.5043 42.011 18.3582C40.9968 18.2034 40.1369 17.6317 39.6476 16.7895C38.7884 15.3109 39.178 13.0993 41.5896 11.7378C42.527 11.2076 42.7 10.6325 42.6108 10.4821C42.5247 10.3312 41.9345 10.1863 40.9962 10.7153C39.9693 11.2945 38.9188 11.5241 37.9598 11.3787C36.9456 11.224 36.0847 10.6531 35.5964 9.81003C34.7394 8.32992 35.1279 6.11913 37.5382 4.76032C38.2215 4.37394 38.4549 3.99478 38.5313 3.8036C38.591 3.6492 38.5855 3.5474 38.5605 3.50379C38.4722 3.3545 37.8863 3.20645 36.9459 3.73706C36.2959 4.10277 35.4488 3.84975 35.0545 3.16601C34.6589 2.48501 34.8625 1.6373 35.5146 1.27C37.9232 -0.0911189 40.0544 0.695624 40.9133 2.17609C41.772 3.6585 41.3818 5.86699 38.9711 7.22969C38.2869 7.61492 38.0576 7.99286 37.9802 8.18482C37.9196 8.33807 37.9248 8.44182 37.949 8.48427C38.037 8.63552 38.6242 8.78082 39.5647 8.25022C41.9741 6.89025 44.1045 7.67584 44.9634 9.15631C45.8215 10.6356 45.433 12.8464 43.0217 14.206C42.3383 14.5924 42.1069 14.9719 42.0285 15.1627C41.9686 15.3191 41.9752 15.4201 41.9993 15.4625C42.0865 15.6126 42.6746 15.7591 43.6139 15.2293C44.2628 14.8644 45.1118 15.1177 45.5053 15.8003C45.7043 16.1391 45.7511 16.523 45.6679 16.8655Z" fill="white"/>
<path d="M51.4191 35.2648C51.098 35.4978 50.6731 35.5785 50.2506 35.4512C49.5117 35.2255 49.0621 34.4426 49.2427 33.7033C49.3341 33.3284 51.5914 24.4897 60.4997 19.8805C61.1625 19.5372 62.0017 19.8207 62.3749 20.5144C62.7473 21.207 62.5208 22.0484 61.8491 22.3911C53.984 26.471 51.9375 34.4373 51.9182 34.5165C51.8391 34.8349 51.6583 35.0913 51.4191 35.2648Z" fill="white"/>
<path d="M15.6523 30.2993C15.5485 30.3745 15.4309 30.4352 15.3025 30.479C14.5914 30.7144 13.7969 30.3087 13.5273 29.5715C11.6028 24.3149 7.67851 16.5452 4.98423 15.7314C4.68103 15.6375 4.30171 15.6041 3.79967 16.0335C2.83542 16.86 4.5912 19.0758 4.60905 19.0981C5.11671 19.7013 5.06677 20.5839 4.50036 21.0671C3.91825 21.5494 3.06242 21.4543 2.55585 20.8503C1.28763 19.3387 -0.469705 15.9304 1.96469 13.8488C3.05113 12.9196 4.31666 12.6486 5.63812 13.0477C10.7012 14.5781 15.2417 26.3688 16.102 28.7176C16.3229 29.3208 16.122 29.9585 15.6523 30.2993Z" fill="white"/>
<defs>
<linearGradient id="paint0_linear_222:0" x1="45.123" y1="54.8633" x2="45.123" y2="108.769" gradientUnits="userSpaceOnUse">
<stop stop-color="white"/>
<stop offset="1" stop-color="white" stop-opacity="0"/>
</linearGradient>
</defs>
</svg>
