<svg width="23" height="23" viewBox="0 0 23 23" fill="none" xmlns="http://www.w3.org/2000/svg">
<path d="M11.39 10.4421C9.29284 10.4421 7.59277 8.74199 7.59277 6.64486C7.59277 4.54772 9.29284 2.84766 11.39 2.84766C13.4871 2.84766 15.1872 4.54772 15.1872 6.64486C15.1872 8.74199 13.4871 10.4421 11.39 10.4421Z" fill="#67B6FF"/>
<path d="M2.84827 19.176C3.21623 14.6453 6.89349 12.3418 11.3755 12.3418C15.9207 12.3418 19.6549 14.5187 19.9331 19.1768C19.9442 19.3623 19.9331 19.9362 19.22 19.9362C15.7022 19.9362 10.475 19.9362 3.53827 19.9362C3.3002 19.9362 2.82823 19.4228 2.84827 19.176Z" fill="#083061"/>
</svg>
