<svg width="24" height="24" viewBox="0 0 24 24" fill="none" xmlns="http://www.w3.org/2000/svg">
<path fill-rule="evenodd" clip-rule="evenodd" d="M6 4H18C18.5523 4 19 4.44772 19 5V14C19 14.5523 18.5523 15 18 15H6C5.44772 15 5 14.5523 5 14V5C5 4.44772 5.44772 4 6 4ZM7.5 7C7.22386 7 7 7.22386 7 7.5C7 7.77614 7.22386 8 7.5 8H13.5C13.7761 8 14 7.77614 14 7.5C14 7.22386 13.7761 7 13.5 7H7.5ZM7.5 9C7.22386 9 7 9.22386 7 9.5C7 9.77614 7.22386 10 7.5 10H10.5C10.7761 10 11 9.77614 11 9.5C11 9.22386 10.7761 9 10.5 9H7.5Z" fill="#0084FF"/>
<path fill-rule="evenodd" clip-rule="evenodd" d="M3.79275 8.57224L12 14.4997L20.2073 8.57224C20.4311 8.41056 20.7437 8.46097 20.9053 8.68483C20.9669 8.77004 21 8.87247 21 8.97758V18.9997C21 20.1043 20.1046 20.9997 19 20.9997H5C3.89543 20.9997 3 20.1043 3 18.9997V8.97758C3 8.70143 3.22386 8.47758 3.5 8.47758C3.60511 8.47758 3.70754 8.5107 3.79275 8.57224Z" fill="#D1E9FF"/>
</svg>
