<svg width="37" height="37" viewBox="0 0 37 37" fill="none" xmlns="http://www.w3.org/2000/svg">
<circle cx="18.5" cy="18.5" r="18.5" fill="#67B6FF" fill-opacity="0.2"/>
<circle cx="18.5" cy="18.5" r="18.25" stroke="#0084FF" stroke-opacity="0.2" stroke-width="0.5"/>
<path d="M16.499 15.625C14.566 15.625 12.999 14.058 12.999 12.125C12.999 10.192 14.566 8.625 16.499 8.625C18.432 8.625 19.999 10.192 19.999 12.125C19.999 14.058 18.432 15.625 16.499 15.625Z" fill="#67B6FF"/>
<path d="M8.62557 23.6743C8.96473 19.4982 12.3542 17.375 16.4854 17.375C20.6748 17.375 24.1168 19.3815 24.3732 23.675C24.3834 23.846 24.3732 24.375 23.7159 24.375C20.4735 24.375 15.6554 24.375 9.26156 24.375C9.04212 24.375 8.6071 23.9018 8.62557 23.6743Z" fill="#67B6FF"/>
<path d="M18.2563 14.2578C18.2563 16.1874 19.8205 17.7516 21.75 17.7516C23.6795 17.7516 25.2437 16.1874 25.2437 14.2578C25.2437 12.3283 23.6795 10.7641 21.75 10.7641C19.8205 10.7641 18.2563 12.3283 18.2563 14.2578Z" fill="#0084FF" stroke="#E1F0FF" stroke-width="1.3"/>
<path d="M21.7382 17.8734C19.9549 17.8734 18.2805 18.3311 17.0001 19.2898C15.7053 20.2592 14.8567 21.7107 14.7042 23.589C14.6848 23.8278 14.7789 24.0247 14.8306 24.1196C14.8945 24.2368 14.9761 24.3443 15.0577 24.4337C15.1393 24.5231 15.2384 24.6138 15.3483 24.6876C15.4348 24.7457 15.625 24.8609 15.8688 24.8609H15.8992H15.9296H15.96H15.9903H16.0206H16.0509H16.0811H16.1113H16.1415H16.1717H16.2018H16.2319H16.262H16.2921H16.3221H16.352H16.382H16.4119H16.4418H16.4717H16.5015H16.5313H16.5611H16.5909H16.6206H16.6503H16.68H16.7096H16.7392H16.7688H16.7983H16.8278H16.8573H16.8868H16.9162H16.9456H16.975H17.0043H17.0336H17.0629H17.0922H17.1214H17.1506H17.1797H17.2089H17.238H17.2671H17.2961H17.3251H17.3541H17.3831H17.412H17.4409H17.4698H17.4986H17.5274H17.5562H17.585H17.6137H17.6424H17.6711H17.6997H17.7283H17.7569H17.7854H17.8139H17.8424H17.8709H17.8993H17.9277H17.9561H17.9844H18.0128H18.041H18.0693H18.0975H18.1257H18.1539H18.182H18.2101H18.2382H18.2663H18.2943H18.3223H18.3503H18.3782H18.4061H18.434H18.4618H18.4896H18.5174H18.5452H18.5729H18.6006H18.6283H18.6559H18.6835H18.7111H18.7387H18.7662H18.7937H18.8211H18.8486H18.876H18.9034H18.9307H18.958H18.9853H19.0126H19.0398H19.067H19.0942H19.1213H19.1484H19.1755H19.2026H19.2296H19.2566H19.2836H19.3105H19.3374H19.3643H19.3911H19.418H19.4448H19.4715H19.4983H19.525H19.5516H19.5783H19.6049H19.6315H19.658H19.6846H19.7111H19.7375H19.764H19.7904H19.8168H19.8431H19.8694H19.8957H19.922H19.9482H19.9744H20.0006H20.0267H20.0529H20.079H20.105H20.131H20.157H20.183H20.209H20.2349H20.2607H20.2866H20.3124H20.3382H20.364H20.3897H20.4154H20.4411H20.4668H20.4924H20.518H20.5435H20.5691H20.5946H20.62H20.6455H20.6709H20.6963H20.7216H20.7469H20.7722H20.7975H20.8228H20.848H20.8731H20.8983H20.9234H20.9485H20.9736H20.9986H21.0236H21.0486H21.0735H21.0984H21.1233H21.1482H21.173H21.1978H21.2226H21.2473H21.272H21.2967H21.3214H21.346H21.3706H21.3951H21.4197H21.4442H21.4687H21.4931H21.5175H21.5419H21.5663H21.5906H21.6149H21.6392H21.6634H21.6876H21.7118H21.736H21.7601H21.7842H21.8082H21.8323H21.8563H21.8803H21.9042H21.9281H21.952H21.9759H21.9997H22.0235H22.0473H22.071H22.0947H22.1184H22.1421H22.1657H22.1893H22.2129H22.2364H22.2599H22.2834H22.3069H22.3303H22.3537H22.377H22.4004H22.4237H22.4469H22.4702H22.4934H22.5166H22.5398H22.5629H22.586H22.609H22.6321H22.6551H22.6781H22.701H22.724H22.7469H22.7697H22.7926H22.8154H22.8381H22.8609H22.8836H22.9063H22.9289H22.9516H22.9742H22.9967H23.0193H23.0418H23.0643H23.0867H23.1092H23.1316H23.1539H23.1763H23.1986H23.2209H23.2431H23.2653H23.2875H23.3097H23.3318H23.3539H23.376H23.398H23.42H23.442H23.464H23.4859H23.5078H23.5297H23.5515H23.5733H23.5951H23.6169H23.6386H23.6603H23.6819H23.7036H23.7252H23.7467H23.7683H23.7898H23.8113H23.8328H23.8542H23.8756H23.8969H23.9183H23.9396H23.9609H23.9821H24.0034H24.0246H24.0457H24.0669H24.088H24.109H24.1301H24.1511H24.1721H24.1931H24.214H24.2349H24.2558H24.2766H24.2974H24.3182H24.3389H24.3597H24.3804H24.401H24.4217H24.4423H24.4629H24.4834H24.5039H24.5244H24.5449H24.5653H24.5857H24.6061H24.6264H24.6468H24.667H24.6873H24.7075H24.7277H24.7479H24.768H24.7881H24.8082H24.8283H24.8483H24.8683H24.8882H24.9082H24.9281H24.948H24.9678H24.9876H25.0074H25.0272H25.0469H25.0666H25.0863H25.1059H25.1255H25.1451H25.1647H25.1842H25.2037H25.2231H25.2426H25.262H25.2814H25.3007H25.32H25.3393H25.3586H25.3778H25.397H25.4162H25.4353H25.4544H25.4735H25.4926H25.5116H25.5306H25.5496H25.5685H25.5874H25.6063H25.6251H25.644H25.6628H25.6815H25.7003H25.719H25.7376H25.7563H25.7749H25.7935H25.812H25.8306H25.8491H25.8675H25.886H25.9044H25.9228H25.9411H25.9594H25.9777H25.996H26.0142H26.0324H26.0506H26.0688H26.0869H26.105H26.123H26.141H26.159H26.177H26.195H26.2129H26.2308H26.2486H26.2664H26.2842H26.302H26.3197H26.3374H26.3551H26.3728H26.3904H26.408H26.4255H26.4431H26.4606H26.478H26.4955H26.5129H26.5303H26.5476H26.565H26.5823H26.5995H26.6168H26.634H26.6512H26.6683H26.6854H26.7025H26.7196H26.7366H26.7536H26.7706H26.7875H26.8045H26.8213H26.8382H26.855H26.8718H26.8886H26.9053H26.922H26.9387H26.9554H26.972H26.9886H27.0052H27.0217H27.0382H27.0547H27.0711H27.0875H27.1039H27.1203H27.1366H27.1529H27.1692H27.1854H27.2016H27.2178H27.234H27.2501H27.2662H27.2823H27.2983H27.3143H27.3303H27.3462H27.3622H27.378H27.3939H27.4097H27.4255H27.4413H27.4571H27.4728H27.4885H27.5041H27.5197H27.5353H27.5509H27.5664H27.582H27.5974H27.6129C27.8339 24.8609 28.049 24.8161 28.2406 24.7086C28.4354 24.5995 28.569 24.4463 28.6545 24.2889C28.8119 23.9991 28.8018 23.7044 28.7958 23.6034C28.6805 21.673 27.8374 20.2125 26.5252 19.2504C25.2325 18.3027 23.5349 17.8734 21.7382 17.8734Z" fill="#0084FF" stroke="#E1F0FF" stroke-width="1.3"/>
</svg>
