<svg width="28" height="28" viewBox="0 0 28 28" fill="none" xmlns="http://www.w3.org/2000/svg">
<path d="M13.6074 13.2578C11.1022 13.2578 9.07129 11.2269 9.07129 8.72168C9.07129 6.21644 11.1022 4.18555 13.6074 4.18555C16.1127 4.18555 18.1436 6.21644 18.1436 8.72168C18.1436 11.2269 16.1127 13.2578 13.6074 13.2578Z" fill="#0084FF"/>
<path d="M3.40211 23.6895C3.84167 18.2771 8.23452 15.5254 13.5888 15.5254C19.0184 15.5254 23.4793 18.1259 23.8116 23.6904C23.8248 23.9121 23.8116 24.5977 22.9597 24.5977C18.7575 24.5977 12.513 24.5977 4.22638 24.5977C3.94197 24.5977 3.37816 23.9843 3.40211 23.6895Z" fill="#083061"/>
</svg>
