<svg width="375" height="388" viewBox="0 0 375 388" fill="none" xmlns="http://www.w3.org/2000/svg">
<mask id="mask0" mask-type="alpha" maskUnits="userSpaceOnUse" x="-56" y="0" width="446" height="539">
<rect x="-56" width="445.29" height="539" fill="#083061"/>
</mask>
<g mask="url(#mask0)">
<g opacity="0.4">
<g opacity="0.2">
<path d="M-20.4472 42.2468L-20.4812 42.2528L-20.515 42.2596L-52.2451 48.6437L-52.2451 34.6913C-51.7849 26.0517 -47.9267 20.5876 -42.5919 17.2739C-37.0943 13.8592 -29.785 12.5954 -22.4974 13.0649L-22.3965 13.0714L-22.2954 13.0711C-11.9344 13.0395 -6.67945 19.5611 -6.18892 26.2362C-5.69748 32.9236 -9.95491 40.3855 -20.4472 42.2468Z" stroke="white" stroke-width="6"/>
</g>
<g opacity="0.2">
<path d="M-20.4472 141.491L-20.4812 141.497L-20.515 141.504L-52.2451 147.888L-52.2451 133.935C-51.7849 125.296 -47.9267 119.832 -42.5919 116.518C-37.0943 113.103 -29.785 111.84 -22.4974 112.309L-22.3965 112.316L-22.2954 112.315C-11.9344 112.284 -6.67945 118.805 -6.18892 125.48C-5.69748 132.168 -9.95491 139.63 -20.4472 141.491Z" stroke="white" stroke-width="6"/>
</g>
<g opacity="0.2">
<path d="M-20.4472 240.74L-20.4812 240.746L-20.515 240.753L-52.2451 247.137L-52.2451 233.185C-51.7849 224.545 -47.9267 219.081 -42.5919 215.768C-37.0943 212.353 -29.785 211.089 -22.4974 211.559L-22.3965 211.565L-22.2954 211.565C-11.9344 211.533 -6.67945 218.055 -6.18892 224.73C-5.69748 231.417 -9.95491 238.879 -20.4472 240.74Z" stroke="white" stroke-width="6"/>
</g>
<g opacity="0.2">
<path d="M78.1791 78.1155H78.3056C87.5941 78.1155 94.0074 72.2501 94.0156 64.4294L78.1791 78.1155ZM78.1791 78.1155L78.0531 78.1261M78.1791 78.1155L78.0531 78.1261M78.0531 78.1261L68.019 78.9738M78.0531 78.1261L68.019 78.9738M68.019 78.9738V61.5894L92.7895 57.28C92.9755 57.6206 93.189 58.1635 93.3849 58.9305C93.8616 60.796 94.0155 63.0893 94.0156 64.4289L68.019 78.9738Z" stroke="white" stroke-width="6"/>
<path d="M99.9073 42.2458L99.8733 42.2518L99.8395 42.2586L68.1094 48.6427V34.6903C68.5696 26.0507 72.4277 20.5866 77.7625 17.273C83.2602 13.8582 90.5695 12.5945 97.857 13.0639L97.9579 13.0704L98.059 13.0701C108.42 13.0385 113.675 19.5602 114.166 26.2352C114.657 32.9226 110.4 40.3846 99.9073 42.2458Z" stroke="white" stroke-width="6"/>
</g>
<g opacity="0.2">
<path d="M78.1796 276.611H78.3061C87.5946 276.611 94.0078 270.745 94.016 262.925L78.1796 276.611ZM78.1796 276.611L78.0536 276.621M78.1796 276.611L78.0536 276.621M78.0536 276.621L68.0195 277.469M78.0536 276.621L68.0195 277.469M68.0195 277.469V260.084L92.79 255.775C92.976 256.116 93.1895 256.659 93.3854 257.426C93.8621 259.291 94.016 261.584 94.016 262.924L68.0195 277.469Z" stroke="white" stroke-width="6"/>
<path d="M99.9078 240.74L99.8738 240.746L99.84 240.753L68.1099 247.137V233.185C68.5701 224.545 72.4282 219.081 77.763 215.768C83.2606 212.353 90.5699 211.089 97.8575 211.559L97.9584 211.565L98.0595 211.565C108.421 211.533 113.676 218.055 114.166 224.73C114.658 231.417 110.4 238.879 99.9078 240.74Z" stroke="white" stroke-width="6"/>
</g>
<g opacity="0.2">
<path d="M203.706 177.361H203.832C213.121 177.361 219.534 171.495 219.542 163.675L203.706 177.361ZM203.706 177.361L203.58 177.371M203.706 177.361L203.58 177.371M203.58 177.371L193.546 178.219M203.58 177.371L193.546 178.219M193.546 178.219V160.834L218.316 156.525C218.502 156.866 218.716 157.409 218.912 158.176C219.388 160.041 219.542 162.334 219.542 163.674L193.546 178.219Z" stroke="white" stroke-width="6"/>
<path d="M225.433 141.491L225.399 141.497L225.365 141.504L193.635 147.888V133.935C194.095 125.296 197.954 119.832 203.288 116.518C208.786 113.103 216.095 111.84 223.383 112.309L223.484 112.316L223.585 112.315C233.946 112.284 239.201 118.805 239.691 125.48C240.183 132.168 235.925 139.63 225.433 141.491Z" stroke="white" stroke-width="6"/>
</g>
<g opacity="0.2">
<path d="M203.706 276.611H203.832C213.121 276.611 219.534 270.745 219.542 262.925L203.706 276.611ZM203.706 276.611L203.58 276.621M203.706 276.611L203.58 276.621M203.58 276.621L193.546 277.469M203.58 276.621L193.546 277.469M193.546 277.469V260.084L218.316 255.775C218.502 256.116 218.716 256.659 218.912 257.426C219.388 259.291 219.542 261.584 219.542 262.924L193.546 277.469Z" stroke="white" stroke-width="6"/>
<path d="M225.433 240.74L225.399 240.746L225.365 240.753L193.635 247.137V233.185C194.095 224.545 197.954 219.081 203.288 215.768C208.786 212.353 216.095 211.089 223.383 211.559L223.484 211.565L223.585 211.565C233.946 211.533 239.201 218.055 239.691 224.73C240.183 231.417 235.925 238.879 225.433 240.74Z" stroke="white" stroke-width="6"/>
</g>
<g opacity="0.2">
<path d="M326.856 78.1155H326.983C336.271 78.1155 342.685 72.2501 342.693 64.4294L326.856 78.1155ZM326.856 78.1155L326.73 78.1261M326.856 78.1155L326.73 78.1261M326.73 78.1261L316.696 78.9738M326.73 78.1261L316.696 78.9738M316.696 78.9738V61.5894L341.467 57.28C341.653 57.6206 341.866 58.1635 342.062 58.9305C342.539 60.796 342.693 63.0893 342.693 64.4289L316.696 78.9738Z" stroke="white" stroke-width="6"/>
<path d="M348.584 42.2458L348.55 42.2518L348.516 42.2586L316.786 48.6427V34.6903C317.246 26.0507 321.104 20.5866 326.439 17.273C331.936 13.8582 339.246 12.5945 346.533 13.0639L346.634 13.0704L346.735 13.0701C357.096 13.0385 362.351 19.5602 362.842 26.2352C363.333 32.9226 359.076 40.3846 348.584 42.2458Z" stroke="white" stroke-width="6"/>
</g>
<g opacity="0.2">
<path d="M326.856 177.361H326.983C336.271 177.361 342.685 171.495 342.693 163.675L326.856 177.361ZM326.856 177.361L326.73 177.371M326.856 177.361L326.73 177.371M326.73 177.371L316.696 178.219M326.73 177.371L316.696 178.219M316.696 178.219V160.834L341.467 156.525C341.653 156.866 341.866 157.409 342.062 158.176C342.539 160.041 342.693 162.334 342.693 163.674L316.696 178.219Z" stroke="white" stroke-width="6"/>
<path d="M348.585 141.491L348.551 141.497L348.517 141.504L316.787 147.888V133.935C317.247 125.296 321.105 119.832 326.44 116.518C331.937 113.103 339.247 111.84 346.534 112.309L346.635 112.316L346.736 112.315C357.097 112.284 362.352 118.805 362.843 125.48C363.334 132.168 359.077 139.63 348.585 141.491Z" stroke="white" stroke-width="6"/>
</g>
<g opacity="0.2">
<path d="M326.856 276.611H326.983C336.271 276.611 342.685 270.745 342.693 262.925L326.856 276.611ZM326.856 276.611L326.73 276.621M326.856 276.611L326.73 276.621M326.73 276.621L316.696 277.469M326.73 276.621L316.696 277.469M316.696 277.469V260.084L341.467 255.775C341.653 256.116 341.866 256.659 342.062 257.426C342.539 259.291 342.693 261.584 342.693 262.924L316.696 277.469Z" stroke="white" stroke-width="6"/>
<path d="M348.585 240.74L348.551 240.746L348.517 240.753L316.787 247.137V233.185C317.247 224.545 321.105 219.081 326.44 215.768C331.937 212.353 339.247 211.089 346.534 211.559L346.635 211.565L346.736 211.565C357.097 211.533 362.352 218.055 362.843 224.73C363.334 231.417 359.077 238.879 348.585 240.74Z" stroke="white" stroke-width="6"/>
</g>
<g opacity="0.2">
<path d="M32.753 113.338L32.6265 113.338C23.3381 113.338 16.9248 119.203 16.9166 127.024L32.753 113.338ZM32.753 113.338L32.879 113.327M32.753 113.338L32.879 113.327M32.879 113.327L42.9131 112.479M32.879 113.327L42.9131 112.479M42.9131 112.479L42.9131 129.864L18.1426 134.173C17.9567 133.833 17.7432 133.29 17.5472 132.523C17.0705 130.657 16.9166 128.364 16.9166 127.024L42.9131 112.479Z" stroke="white" stroke-width="6"/>
<path d="M11.0258 149.208L11.0598 149.202L11.0936 149.195L42.8237 142.811L42.8237 156.763C42.3635 165.403 38.5054 170.867 33.1706 174.181C27.6729 177.595 20.3636 178.859 13.0761 178.39L12.9752 178.383L12.8741 178.384C2.51304 178.415 -2.74193 171.893 -3.23247 165.218C-3.72391 158.531 0.533526 151.069 11.0258 149.208Z" stroke="white" stroke-width="6"/>
</g>
<g opacity="0.2">
<path d="M32.753 212.587L32.6265 212.587C23.3381 212.587 16.9248 218.452 16.9166 226.273L32.753 212.587ZM32.753 212.587L32.879 212.576M32.753 212.587L32.879 212.576M32.879 212.576L42.9131 211.728M32.879 212.576L42.9131 211.728M42.9131 211.728L42.9131 229.113L18.1426 233.422C17.9567 233.082 17.7432 232.539 17.5472 231.772C17.0705 229.906 16.9166 227.613 16.9166 226.273L42.9131 211.728Z" stroke="white" stroke-width="6"/>
<path d="M11.0258 248.457L11.0598 248.451L11.0936 248.444L42.8237 242.06L42.8237 256.012C42.3635 264.652 38.5054 270.116 33.1706 273.43C27.6729 276.844 20.3636 278.108 13.0761 277.639L12.9752 277.632L12.8741 277.633C2.51304 277.664 -2.74193 271.142 -3.23247 264.467C-3.72391 257.78 0.533526 250.318 11.0258 248.457Z" stroke="white" stroke-width="6"/>
</g>
<g opacity="0.2">
<path d="M153.107 14.0925L152.981 14.0925C143.693 14.0925 137.279 19.9579 137.271 27.7786L153.107 14.0925ZM153.107 14.0925L153.234 14.0819M153.107 14.0925L153.234 14.0819M153.234 14.0819L163.268 13.2342M153.234 14.0819L163.268 13.2342M163.268 13.2342L163.268 30.6186L138.497 34.928C138.311 34.5874 138.098 34.0445 137.902 33.2775C137.425 31.412 137.271 29.1187 137.271 27.7791L163.268 13.2342Z" stroke="white" stroke-width="6"/>
<path d="M131.38 49.9622L131.414 49.9562L131.448 49.9494L163.178 43.5653L163.178 57.5177C162.718 66.1573 158.86 71.6214 153.525 74.935C148.027 78.3498 140.718 79.6135 133.431 79.1441L133.33 79.1376L133.229 79.1379C122.868 79.1695 117.613 72.6478 117.122 65.9728C116.631 59.2854 120.888 51.8234 131.38 49.9622Z" stroke="white" stroke-width="6"/>
</g>
<g opacity="0.2">
<path d="M153.107 212.585L152.981 212.585C143.693 212.585 137.279 218.451 137.271 226.271L153.107 212.585ZM153.107 212.585L153.234 212.575M153.107 212.585L153.234 212.575M153.234 212.575L163.268 211.727M153.234 212.575L163.268 211.727M163.268 211.727L163.268 229.111L138.497 233.421C138.311 233.08 138.098 232.537 137.902 231.77C137.425 229.905 137.271 227.611 137.271 226.272L163.268 211.727Z" stroke="white" stroke-width="6"/>
<path d="M131.38 248.455L131.414 248.449L131.448 248.443L163.178 242.058L163.178 256.011C162.718 264.65 158.86 270.115 153.525 273.428C148.027 276.843 140.718 278.107 133.431 277.637L133.33 277.631L133.229 277.631C122.868 277.663 117.613 271.141 117.122 264.466C116.631 257.779 120.888 250.317 131.38 248.455Z" stroke="white" stroke-width="6"/>
</g>
<g opacity="0.2">
<path d="M278.634 113.338L278.507 113.338C269.219 113.338 262.806 119.203 262.797 127.024L278.634 113.338ZM278.634 113.338L278.76 113.327M278.634 113.338L278.76 113.327M278.76 113.327L288.794 112.479M278.76 113.327L288.794 112.479M288.794 112.479L288.794 129.864L264.023 134.173C263.838 133.833 263.624 133.29 263.428 132.523C262.951 130.657 262.797 128.364 262.797 127.024L288.794 112.479Z" stroke="white" stroke-width="6"/>
<path d="M256.907 149.208L256.941 149.202L256.974 149.195L288.705 142.811L288.705 156.763C288.244 165.403 284.386 170.867 279.051 174.181C273.554 177.595 266.245 178.859 258.957 178.39L258.856 178.383L258.755 178.384C248.394 178.415 243.139 171.893 242.648 165.218C242.157 158.531 246.414 151.069 256.907 149.208Z" stroke="white" stroke-width="6"/>
</g>
<g opacity="0.2">
<path d="M278.634 212.587L278.507 212.587C269.219 212.587 262.806 218.452 262.797 226.273L278.634 212.587ZM278.634 212.587L278.76 212.576M278.634 212.587L278.76 212.576M278.76 212.576L288.794 211.728M278.76 212.576L288.794 211.728M288.794 211.728L288.794 229.113L264.023 233.422C263.838 233.082 263.624 232.539 263.428 231.772C262.951 229.906 262.797 227.613 262.797 226.273L288.794 211.728Z" stroke="white" stroke-width="6"/>
<path d="M256.907 248.457L256.941 248.451L256.974 248.444L288.705 242.06L288.705 256.012C288.244 264.652 284.386 270.116 279.051 273.43C273.554 276.844 266.245 278.108 258.957 277.639L258.856 277.632L258.755 277.633C248.394 277.664 243.139 271.142 242.648 264.467C242.157 257.78 246.414 250.318 256.907 248.457Z" stroke="white" stroke-width="6"/>
</g>
<g opacity="0.2">
<path d="M380.057 49.9622L380.091 49.9562L380.125 49.9494L411.855 43.5653L411.855 57.5177C411.395 66.1573 407.537 71.6214 402.202 74.935C396.704 78.3498 389.395 79.6135 382.107 79.1441L382.006 79.1376L381.905 79.1379C371.544 79.1695 366.289 72.6478 365.799 65.9728C365.307 59.2854 369.565 51.8234 380.057 49.9622Z" stroke="white" stroke-width="6"/>
</g>
<g opacity="0.2">
<path d="M380.058 149.208L380.092 149.202L380.125 149.195L411.855 142.811L411.855 156.763C411.395 165.403 407.537 170.867 402.202 174.181C396.705 177.595 389.395 178.859 382.108 178.39L382.007 178.383L381.906 178.384C371.545 178.415 366.29 171.893 365.799 165.218C365.308 158.531 369.565 151.069 380.058 149.208Z" stroke="white" stroke-width="6"/>
</g>
<g opacity="0.2">
<path d="M380.058 248.457L380.092 248.451L380.125 248.444L411.855 242.06L411.855 256.012C411.395 264.652 407.537 270.116 402.202 273.43C396.705 276.844 389.395 278.108 382.108 277.639L382.007 277.632L381.906 277.633C371.545 277.664 366.29 271.142 365.799 264.467C365.308 257.78 369.565 250.318 380.058 248.457Z" stroke="white" stroke-width="6"/>
</g>
</g>
<g opacity="0.4">
<g opacity="0.2">
<path d="M-20.4472 327.098L-20.4812 327.104L-20.515 327.111L-52.2451 333.495L-52.2451 319.543C-51.7849 310.903 -47.9267 305.439 -42.5919 302.126C-37.0943 298.711 -29.785 297.447 -22.4974 297.916L-22.3965 297.923L-22.2954 297.923C-11.9344 297.891 -6.67945 304.413 -6.18892 311.088C-5.69748 317.775 -9.95491 325.237 -20.4472 327.098Z" stroke="white" stroke-width="6"/>
</g>
<g opacity="0.2">
<path d="M78.1791 362.968H78.3056C87.5941 362.968 94.0074 357.103 94.0156 349.282L78.1791 362.968ZM78.1791 362.968L78.0531 362.979M78.1791 362.968L78.0531 362.979M78.0531 362.979L68.019 363.826M78.0531 362.979L68.019 363.826M68.019 363.826V346.442L92.7895 342.132C92.9755 342.473 93.189 343.016 93.3849 343.783C93.8616 345.649 94.0155 347.942 94.0156 349.281L68.019 363.826Z" stroke="white" stroke-width="6"/>
<path d="M99.9073 327.098L99.8733 327.104L99.8395 327.111L68.1094 333.495V319.542C68.5696 310.903 72.4277 305.439 77.7625 302.125C83.2602 298.71 90.5695 297.447 97.857 297.916L97.9579 297.922L98.059 297.922C108.42 297.891 113.675 304.412 114.166 311.087C114.657 317.775 110.4 325.237 99.9073 327.098Z" stroke="white" stroke-width="6"/>
</g>
<g opacity="0.2">
<path d="M326.856 362.968H326.983C336.271 362.968 342.685 357.103 342.693 349.282L326.856 362.968ZM326.856 362.968L326.73 362.979M326.856 362.968L326.73 362.979M326.73 362.979L316.696 363.826M326.73 362.979L316.696 363.826M316.696 363.826V346.442L341.467 342.132C341.653 342.473 341.866 343.016 342.062 343.783C342.539 345.649 342.693 347.942 342.693 349.281L316.696 363.826Z" stroke="white" stroke-width="6"/>
<path d="M348.584 327.098L348.55 327.104L348.516 327.111L316.786 333.495V319.542C317.246 310.903 321.104 305.439 326.439 302.125C331.936 298.71 339.246 297.447 346.533 297.916L346.634 297.922L346.735 297.922C357.096 297.891 362.351 304.412 362.842 311.087C363.333 317.775 359.076 325.237 348.584 327.098Z" stroke="white" stroke-width="6"/>
</g>
<g opacity="0.2">
<path d="M32.7525 298.943L32.626 298.943C23.3376 298.943 16.9243 304.809 16.9161 312.629L32.7525 298.943ZM32.7525 298.943L32.8785 298.932M32.7525 298.943L32.8785 298.932M32.8785 298.932L42.9126 298.085M32.8785 298.932L42.9126 298.085M42.9126 298.085L42.9126 315.469L18.1421 319.779C17.9562 319.438 17.7427 318.895 17.5467 318.128C17.07 316.263 16.9161 313.969 16.9161 312.63L42.9126 298.085Z" stroke="white" stroke-width="6"/>
<path d="M11.0254 334.814L11.0593 334.808L11.0931 334.801L42.8232 328.417L42.8232 342.37C42.363 351.009 38.5049 356.473 33.1701 359.787C27.6725 363.202 20.3632 364.466 13.0756 363.996L12.9747 363.99L12.8736 363.99C2.51255 364.022 -2.74242 357.5 -3.23295 350.825C-3.72439 344.137 0.533038 336.675 11.0254 334.814Z" stroke="white" stroke-width="6"/>
</g>
<g opacity="0.2">
<path d="M153.107 298.943L152.981 298.943C143.693 298.943 137.279 304.809 137.271 312.629L153.107 298.943ZM153.107 298.943L153.234 298.932M153.107 298.943L153.234 298.932M153.234 298.932L163.268 298.085M153.234 298.932L163.268 298.085M163.268 298.085L163.268 315.469L138.497 319.779C138.311 319.438 138.098 318.895 137.902 318.128C137.425 316.263 137.271 313.969 137.271 312.63L163.268 298.085Z" stroke="white" stroke-width="6"/>
<path d="M131.38 334.814L131.414 334.808L131.448 334.801L163.178 328.417L163.178 342.37C162.718 351.009 158.86 356.473 153.525 359.787C148.027 363.202 140.718 364.466 133.431 363.996L133.33 363.99L133.229 363.99C122.868 364.022 117.613 357.5 117.122 350.825C116.631 344.137 120.888 336.675 131.38 334.814Z" stroke="white" stroke-width="6"/>
</g>
<g opacity="0.2">
<path d="M380.057 334.814L380.091 334.808L380.125 334.801L411.855 328.417L411.855 342.37C411.395 351.009 407.537 356.473 402.202 359.787C396.704 363.202 389.395 364.466 382.107 363.996L382.006 363.99L381.905 363.99C371.544 364.022 366.289 357.5 365.799 350.825C365.307 344.137 369.565 336.675 380.057 334.814Z" stroke="white" stroke-width="6"/>
</g>
</g>
</g>
</svg>
