<svg width="193" height="46" viewBox="0 0 193 46" fill="none" xmlns="http://www.w3.org/2000/svg">
<path d="M61.0261 21.0919C61.0261 24.5008 59.8331 27.3923 57.4471 29.7663C55.0917 32.1099 52.201 33.2817 48.775 33.2817C46.5726 33.2817 44.5384 32.7491 42.6724 31.6838V45.6998H36.478V21.0919C36.478 17.6526 37.6557 14.7611 40.0111 12.4175C42.3971 10.0739 45.3184 8.9021 48.775 8.9021C52.201 8.9021 55.0917 10.0891 57.4471 12.4632C59.8331 14.8068 61.0261 17.683 61.0261 21.0919ZM54.8317 21.0919C54.8317 19.4179 54.2352 18.0026 53.0422 16.846C51.8798 15.659 50.4574 15.0655 48.775 15.0655C47.0926 15.0655 45.6549 15.659 44.4619 16.846C43.2689 18.0026 42.6724 19.4179 42.6724 21.0919C42.6724 22.7659 43.2689 24.1964 44.4619 25.3834C45.6549 26.54 47.0926 27.1183 48.775 27.1183C50.4574 27.1183 51.8798 26.54 53.0422 25.3834C54.2352 24.1964 54.8317 22.7659 54.8317 21.0919Z" fill="white"/>
<path d="M91.4251 32.5969H84.8637L83.533 29.0358C81.0858 31.8969 77.9657 33.3274 74.1726 33.3274C70.7466 33.3274 67.8406 32.1403 65.4546 29.7663C63.0992 27.3923 61.9215 24.516 61.9215 21.1376C61.9215 18.5505 62.6557 16.2221 64.124 14.1524C65.5923 12.0523 67.55 10.5609 69.9972 9.67823C71.4349 9.16081 72.842 8.9021 74.2185 8.9021C76.8186 8.9021 79.1587 9.64779 81.2388 11.1392C83.3495 12.6001 84.8484 14.5481 85.7355 16.983L91.4251 32.5969ZM80.2752 21.1376C80.2752 19.007 79.4034 17.3482 77.6598 16.1612C76.6504 15.4612 75.488 15.1111 74.1726 15.1111C72.0314 15.1111 70.3795 15.9634 69.2171 17.6678C68.483 18.7331 68.1159 19.8897 68.1159 21.1376C68.1159 23.2377 68.9877 24.8812 70.7313 26.0683C71.8019 26.7987 72.9491 27.164 74.1726 27.164C75.855 27.164 77.2928 26.5857 78.4857 25.4291C79.6787 24.2421 80.2752 22.8116 80.2752 21.1376Z" fill="white"/>
<path d="M114.636 32.8252C114.636 36.2645 113.443 39.1559 111.057 41.4996C108.702 43.8432 105.796 45.015 102.339 45.015V38.8516C104.022 38.8516 105.46 38.2581 106.653 37.071C107.846 35.9145 108.442 34.4992 108.442 32.8252V31.7294C106.545 32.7947 104.511 33.3274 102.339 33.3274C98.9134 33.3274 96.0074 32.1403 93.6214 29.7663C91.2355 27.3923 90.0425 24.5008 90.0425 21.0919V8.85645H96.2368L96.2827 21.0919C96.2827 22.7659 96.8639 24.1964 98.0263 25.3834C99.2193 26.5705 100.657 27.164 102.339 27.164C104.022 27.164 105.46 26.5705 106.653 25.3834C107.846 24.1964 108.442 22.7659 108.442 21.0919V8.85645H114.636V32.8252Z" fill="white"/>
<path d="M139.043 8.90266L127.709 32.5974L116.238 8.90266H123.58L127.755 18.6271L131.931 8.90266H139.043Z" fill="white"/>
<path d="M146.392 3.65238C146.392 4.68722 146.04 5.56987 145.336 6.30035C144.633 7.00039 143.761 7.35041 142.721 7.35041C141.681 7.35041 140.794 7.00039 140.06 6.30035C139.356 5.56987 139.004 4.68722 139.004 3.65238C139.004 2.61754 139.356 1.7501 140.06 1.05006C140.794 0.350019 141.681 0 142.721 0C143.73 0 144.587 0.365237 145.291 1.09571C146.025 1.79575 146.392 2.64797 146.392 3.65238ZM145.841 32.5974H139.647V8.90266H145.841V32.5974Z" fill="white"/>
<path d="M168.88 29.8582C166.494 32.1409 163.664 33.2823 160.391 33.2823C156.934 33.2823 154.013 32.1105 151.627 29.7669C149.272 27.3928 148.094 24.4861 148.094 21.0468C148.094 17.6379 149.287 14.7617 151.673 12.4181C154.059 10.044 156.965 8.85701 160.391 8.85701C163.511 8.85701 166.234 9.90707 168.558 12.0072L164.842 16.9835C163.649 15.6748 162.165 15.0204 160.391 15.0204C158.709 15.0204 157.271 15.6139 156.078 16.8009C154.885 17.9575 154.288 19.3728 154.288 21.0468C154.288 22.7208 154.885 24.1513 156.078 25.3384C157.271 26.5254 158.709 27.1189 160.391 27.1189C162.226 27.1189 163.741 26.4188 164.934 25.0188L168.88 29.8582Z" fill="white"/>
<path d="M192.351 21.0468C192.351 21.6555 192.305 22.2643 192.213 22.873H174.273C174.67 24.1513 175.404 25.1862 176.475 25.9775C177.546 26.7384 178.754 27.1189 180.1 27.1189C181.966 27.1189 183.511 26.4036 184.734 24.9731L188.497 29.9495C186.141 32.1713 183.342 33.2823 180.1 33.2823C176.643 33.2823 173.722 32.1105 171.336 29.7669C168.981 27.3928 167.803 24.4861 167.803 21.0468C167.803 17.6379 168.996 14.7617 171.382 12.4181C173.768 10.044 176.674 8.85701 180.1 8.85701C183.526 8.85701 186.417 10.044 188.772 12.4181C191.158 14.7617 192.351 17.6379 192.351 21.0468ZM185.422 18.2619C184.291 16.1009 182.516 15.0204 180.1 15.0204C177.653 15.0204 175.863 16.1009 174.731 18.2619H185.422Z" fill="white"/>
<path d="M6.67239 40.7657L0 41.326V29.7599L14.142 27.3145C15.7409 27.3145 16.0683 30.9589 16.0683 32.4369C16.064 37.3454 11.9782 40.7657 6.67239 40.7657Z" fill="#67B6FF"/>
<path d="M17.7832 22.8379L0.0449219 26.3852V17.5532C0.538796 7.90963 8.86189 4.8084 16.5873 5.30304C28.5607 5.26676 29.8037 20.7184 17.7832 22.8379Z" fill="#0084FF"/>
</svg>
