<svg width="37" height="37" viewBox="0 0 37 37" fill="none" xmlns="http://www.w3.org/2000/svg">
<circle cx="18.5" cy="18.5" r="18.5" fill="#E1F0FF"/>
<circle cx="18.5" cy="18.5" r="18.25" stroke="#0084FF" stroke-opacity="0.2" stroke-width="0.5"/>
<path d="M15.0375 13.2578C15.0375 15.1874 16.6017 16.7516 18.5312 16.7516C20.4608 16.7516 22.025 15.1874 22.025 13.2578C22.025 11.3283 20.4608 9.76406 18.5312 9.76406C16.6017 9.76406 15.0375 11.3283 15.0375 13.2578Z" fill="#0084FF" stroke="#E1F0FF" stroke-width="1.3"/>
<path d="M18.5194 16.8734C16.7362 16.8734 15.0618 17.3311 13.7814 18.2898C12.4866 19.2592 11.638 20.7107 11.4854 22.589C11.466 22.8278 11.5602 23.0247 11.6119 23.1196C11.6758 23.2368 11.7574 23.3443 11.839 23.4337C11.9205 23.5231 12.0197 23.6138 12.1296 23.6876C12.216 23.7457 12.4063 23.8609 12.65 23.8609H12.6804H12.7108H12.7412H12.7715H12.8019H12.8321H12.8624H12.8926H12.9228H12.9529H12.9831H13.0132H13.0433H13.0733H13.1033H13.1333H13.1633H13.1932H13.2231H13.2529H13.2828H13.3126H13.3424H13.3721H13.4018H13.4315H13.4612H13.4908H13.5204H13.55H13.5796H13.6091H13.6386H13.668H13.6974H13.7268H13.7562H13.7856H13.8149H13.8442H13.8734H13.9026H13.9318H13.961H13.9901H14.0192H14.0483H14.0774H14.1064H14.1354H14.1643H14.1932H14.2221H14.251H14.2799H14.3087H14.3375H14.3662H14.3949H14.4236H14.4523H14.4809H14.5095H14.5381H14.5667H14.5952H14.6237H14.6521H14.6806H14.709H14.7374H14.7657H14.794H14.8223H14.8506H14.8788H14.907H14.9351H14.9633H14.9914H15.0195H15.0475H15.0756H15.1035H15.1315H15.1594H15.1873H15.2152H15.2431H15.2709H15.2987H15.3264H15.3542H15.3819H15.4095H15.4372H15.4648H15.4924H15.5199H15.5474H15.5749H15.6024H15.6298H15.6572H15.6846H15.712H15.7393H15.7666H15.7938H15.8211H15.8483H15.8754H15.9026H15.9297H15.9568H15.9838H16.0109H16.0379H16.0648H16.0918H16.1187H16.1455H16.1724H16.1992H16.226H16.2528H16.2795H16.3062H16.3329H16.3595H16.3861H16.4127H16.4393H16.4658H16.4923H16.5188H16.5452H16.5716H16.598H16.6244H16.6507H16.677H16.7032H16.7295H16.7557H16.7819H16.808H16.8341H16.8602H16.8863H16.9123H16.9383H16.9643H16.9902H17.0161H17.042H17.0678H17.0937H17.1195H17.1452H17.171H17.1967H17.2224H17.248H17.2736H17.2992H17.3248H17.3503H17.3758H17.4013H17.4267H17.4521H17.4775H17.5029H17.5282H17.5535H17.5788H17.604H17.6292H17.6544H17.6795H17.7047H17.7298H17.7548H17.7798H17.8049H17.8298H17.8548H17.8797H17.9046H17.9294H17.9543H17.9791H18.0038H18.0286H18.0533H18.078H18.1026H18.1272H18.1518H18.1764H18.2009H18.2254H18.2499H18.2744H18.2988H18.3232H18.3475H18.3718H18.3961H18.4204H18.4447H18.4689H18.4931H18.5172H18.5413H18.5654H18.5895H18.6135H18.6375H18.6615H18.6855H18.7094H18.7333H18.7571H18.781H18.8048H18.8285H18.8523H18.876H18.8997H18.9233H18.947H18.9706H18.9941H19.0177H19.0412H19.0647H19.0881H19.1115H19.1349H19.1583H19.1816H19.2049H19.2282H19.2514H19.2747H19.2978H19.321H19.3441H19.3672H19.3903H19.4133H19.4364H19.4593H19.4823H19.5052H19.5281H19.551H19.5738H19.5966H19.6194H19.6421H19.6648H19.6875H19.7102H19.7328H19.7554H19.778H19.8005H19.8231H19.8455H19.868H19.8904H19.9128H19.9352H19.9575H19.9798H20.0021H20.0244H20.0466H20.0688H20.0909H20.1131H20.1352H20.1572H20.1793H20.2013H20.2233H20.2452H20.2672H20.2891H20.3109H20.3328H20.3546H20.3764H20.3981H20.4198H20.4415H20.4632H20.4848H20.5064H20.528H20.5495H20.5711H20.5925H20.614H20.6354H20.6568H20.6782H20.6995H20.7208H20.7421H20.7634H20.7846H20.8058H20.827H20.8481H20.8692H20.8903H20.9113H20.9324H20.9533H20.9743H20.9952H21.0161H21.037H21.0578H21.0787H21.0994H21.1202H21.1409H21.1616H21.1823H21.2029H21.2235H21.2441H21.2647H21.2852H21.3057H21.3261H21.3466H21.367H21.3873H21.4077H21.428H21.4483H21.4685H21.4888H21.509H21.5291H21.5493H21.5694H21.5895H21.6095H21.6295H21.6495H21.6695H21.6894H21.7093H21.7292H21.7491H21.7689H21.7887H21.8084H21.8282H21.8479H21.8675H21.8872H21.9068H21.9264H21.9459H21.9654H21.9849H22.0044H22.0238H22.0432H22.0626H22.082H22.1013H22.1206H22.1398H22.1591H22.1783H22.1974H22.2166H22.2357H22.2548H22.2738H22.2929H22.3119H22.3308H22.3498H22.3687H22.3875H22.4064H22.4252H22.444H22.4628H22.4815H22.5002H22.5189H22.5375H22.5561H22.5747H22.5933H22.6118H22.6303H22.6488H22.6672H22.6856H22.704H22.7224H22.7407H22.759H22.7772H22.7955H22.8137H22.8319H22.85H22.8681H22.8862H22.9043H22.9223H22.9403H22.9583H22.9762H22.9941H23.012H23.0299H23.0477H23.0655H23.0832H23.101H23.1187H23.1364H23.154H23.1716H23.1892H23.2068H23.2243H23.2418H23.2593H23.2767H23.2941H23.3115H23.3289H23.3462H23.3635H23.3808H23.398H23.4152H23.4324H23.4496H23.4667H23.4838H23.5008H23.5179H23.5349H23.5518H23.5688H23.5857H23.6026H23.6194H23.6363H23.6531H23.6698H23.6866H23.7033H23.72H23.7366H23.7533H23.7698H23.7864H23.8029H23.8194H23.8359H23.8524H23.8688H23.8852H23.9015H23.9179H23.9342H23.9504H23.9667H23.9829H23.9991H24.0152H24.0314H24.0475H24.0635H24.0796H24.0956H24.1115H24.1275H24.1434H24.1593H24.1752H24.191H24.2068H24.2226H24.2383H24.254H24.2697H24.2854H24.301H24.3166H24.3322H24.3477H24.3632H24.3787H24.3941C24.6152 23.8609 24.8302 23.8161 25.0219 23.7086C25.2166 23.5995 25.3502 23.4463 25.4357 23.2889C25.5932 22.9991 25.5831 22.7044 25.577 22.6034C25.4618 20.673 24.6186 19.2125 23.3065 18.2504C22.0138 17.3027 20.3162 16.8734 18.5194 16.8734Z" fill="#0084FF" stroke="#E1F0FF" stroke-width="1.3"/>
</svg>
