<svg width="37" height="37" viewBox="0 0 37 37" fill="none" xmlns="http://www.w3.org/2000/svg">
<circle cx="18.5" cy="18.5" r="18.5" fill="#67B6FF" fill-opacity="0.2"/>
<path d="M18.5 17C16.567 17 15 15.433 15 13.5C15 11.567 16.567 10 18.5 10C20.433 10 22 11.567 22 13.5C22 15.433 20.433 17 18.5 17Z" fill="#0084FF"/>
<path d="M11.0005 24.3994C11.3235 20.8199 14.5516 19 18.4861 19C22.476 19 25.7541 20.7199 25.9983 24.4C26.008 24.5466 25.9983 25 25.3722 25C22.2843 25 17.6956 25 11.6063 25C11.3973 25 10.9829 24.5944 11.0005 24.3994Z" fill="#0084FF"/>
<circle cx="24.5" cy="20.5" r="5.5" fill="#0084FF"/>
<path d="M21.75 20.1063L23.7143 22.0706L26.8571 18.9277" stroke="white"/>
</svg>
