<svg width="63" height="66" viewBox="0 0 63 66" fill="none" xmlns="http://www.w3.org/2000/svg">
<path d="M31.4993 3.04468e-08C35.636 -0.000181678 39.7322 0.812974 43.554 2.39304C47.3758 3.9731 50.8484 6.28912 53.7736 9.20887C56.6987 12.1286 59.0191 15.5949 60.6021 19.4098C62.1852 23.2247 63 27.3135 63 31.4427C62.9999 35.981 62.1043 40.4749 60.3643 44.6677C58.6243 48.8606 56.074 52.6702 52.859 55.8792C49.644 59.0881 45.8273 61.6336 41.6268 63.3701C37.4263 65.1066 32.9242 66.0003 28.3777 66H0V31.4427C0 23.1036 3.31867 15.106 9.22593 9.20935C15.1332 3.3127 23.1452 3.04468e-08 31.4993 3.04468e-08Z" fill="#F0F7FF"/>
<circle cx="30" cy="31.5" r="25.5" fill="white"/>
<path d="M30.5854 29.165C27.4397 29.165 24.8896 26.6149 24.8896 23.4692C24.8896 20.3235 27.4397 17.7734 30.5854 17.7734C33.7312 17.7734 36.2812 20.3235 36.2812 23.4692C36.2812 26.6149 33.7312 29.165 30.5854 29.165Z" fill="#67B6FF"/>
<path d="M17.7734 42.263C18.3253 35.467 23.8412 32.0117 30.5643 32.0117C37.382 32.0117 42.9833 35.2771 43.4006 42.2642C43.4172 42.5425 43.4006 43.4033 42.3309 43.4033C37.0543 43.4033 29.2135 43.4033 18.8084 43.4033C18.4513 43.4033 17.7433 42.6332 17.7734 42.263Z" fill="#083061"/>
</svg>
