<svg width="37" height="37" viewBox="0 0 37 37" fill="none" xmlns="http://www.w3.org/2000/svg">
<circle cx="18.5" cy="18.5" r="18.5" fill="#E1F0FF"/>
<circle cx="18.5" cy="18.5" r="18.25" stroke="#0084FF" stroke-opacity="0.2" stroke-width="0.5"/>
<path d="M14 13.5C14 12.837 14.2634 12.2011 14.7322 11.7322C15.2011 11.2634 15.837 11 16.5 11H21.5C22.163 11 22.7989 11.2634 23.2678 11.7322C23.7366 12.2011 24 12.837 24 13.5V23.5C24 24.163 23.7366 24.7989 23.2678 25.2678C22.7989 25.7366 22.163 26 21.5 26H16.5C15.837 26 15.2011 25.7366 14.7322 25.2678C14.2634 24.7989 14 24.163 14 23.5V13.5ZM20.25 22.25C20.25 21.9185 20.1183 21.6005 19.8839 21.3661C19.6495 21.1317 19.3315 21 19 21C18.6685 21 18.3505 21.1317 18.1161 21.3661C17.8817 21.6005 17.75 21.9185 17.75 22.25C17.75 22.5815 17.8817 22.8995 18.1161 23.1339C18.3505 23.3683 18.6685 23.5 19 23.5C19.3315 23.5 19.6495 23.3683 19.8839 23.1339C20.1183 22.8995 20.25 22.5815 20.25 22.25ZM11.2588 14.4175C11.3363 14.271 11.3525 14.0996 11.3038 13.9412C11.255 13.7827 11.1453 13.6501 10.9988 13.5725C10.8522 13.4949 10.6809 13.4787 10.5224 13.5275C10.3639 13.5763 10.2313 13.686 10.1538 13.8325C9.39374 15.2708 8.99762 16.8733 9.00001 18.5C9.00001 20.1838 9.41751 21.7725 10.1538 23.1675C10.1922 23.2401 10.2445 23.3043 10.3078 23.3567C10.371 23.409 10.4439 23.4484 10.5224 23.4725C10.6009 23.4966 10.6833 23.5051 10.7651 23.4974C10.8468 23.4897 10.9262 23.4659 10.9988 23.4275C11.0713 23.3891 11.1356 23.3368 11.1879 23.2735C11.2403 23.2103 11.2796 23.1373 11.3038 23.0588C11.3279 22.9804 11.3364 22.8979 11.3286 22.8162C11.3209 22.7345 11.2972 22.6551 11.2588 22.5825C10.5941 21.3245 10.2477 19.9228 10.25 18.5C10.25 17.025 10.615 15.635 11.2588 14.4175ZM27.8462 13.8325C27.7687 13.686 27.6361 13.5763 27.4776 13.5275C27.3191 13.4787 27.1478 13.4949 27.0012 13.5725C26.8547 13.6501 26.745 13.7827 26.6962 13.9412C26.6475 14.0996 26.6637 14.271 26.7412 14.4175C27.385 15.635 27.75 17.0238 27.75 18.5C27.75 19.975 27.385 21.365 26.7412 22.5825C26.6637 22.729 26.6475 22.9004 26.6962 23.0588C26.745 23.2173 26.8547 23.3499 27.0012 23.4275C27.1478 23.5051 27.3191 23.5213 27.4776 23.4725C27.6361 23.4237 27.7687 23.314 27.8462 23.1675C28.6063 21.7292 29.0024 20.1267 29 18.5C29.0024 16.8733 28.6063 15.2708 27.8462 13.8325ZM13.175 16.2275C13.2099 16.1502 13.2287 16.0667 13.2303 15.982C13.2319 15.8972 13.2162 15.813 13.1842 15.7345C13.1522 15.656 13.1046 15.5849 13.0443 15.5253C12.9839 15.4658 12.9121 15.4192 12.8332 15.3883C12.7542 15.3574 12.6699 15.3429 12.5851 15.3456C12.5004 15.3484 12.4171 15.3683 12.3404 15.4043C12.2636 15.4402 12.195 15.4914 12.1386 15.5547C12.0822 15.618 12.0393 15.6921 12.0125 15.7725C11.6731 16.6418 11.4993 17.5668 11.5 18.5C11.5 19.4613 11.6813 20.3813 12.0125 21.2275C12.0393 21.3079 12.0822 21.382 12.1386 21.4453C12.195 21.5086 12.2636 21.5598 12.3404 21.5957C12.4171 21.6317 12.5004 21.6516 12.5851 21.6544C12.6699 21.6571 12.7542 21.6426 12.8332 21.6117C12.9121 21.5808 12.9839 21.5342 13.0443 21.4747C13.1046 21.4151 13.1522 21.344 13.1842 21.2655C13.2162 21.187 13.2319 21.1028 13.2303 21.018C13.2287 20.9333 13.2099 20.8498 13.175 20.7725C12.8929 20.0481 12.7487 19.2774 12.75 18.5C12.75 17.6975 12.9 16.9313 13.175 16.2275ZM25.9875 15.7725C25.9216 15.6265 25.802 15.5113 25.6536 15.4509C25.5052 15.3904 25.3393 15.3893 25.1901 15.4477C25.0409 15.5061 24.9198 15.6196 24.8518 15.7647C24.7839 15.9098 24.7743 16.0755 24.825 16.2275C25.1 16.9313 25.25 17.6975 25.25 18.5C25.25 19.3025 25.1 20.0688 24.825 20.7725C24.7743 20.9245 24.7839 21.0902 24.8518 21.2353C24.9198 21.3804 25.0409 21.4939 25.1901 21.5523C25.3393 21.6107 25.5052 21.6096 25.6536 21.5491C25.802 21.4887 25.9216 21.3735 25.9875 21.2275C26.32 20.3813 26.5 19.4613 26.5 18.5C26.5 17.5388 26.3187 16.6188 25.9875 15.7725Z" fill="#0084FF"/>
</svg>
