<svg width="177" height="126" viewBox="0 0 177 126" fill="none" xmlns="http://www.w3.org/2000/svg">
<path d="M84.4988 5C91.9185 4.99968 99.2656 6.44703 106.121 9.25943C112.976 12.0718 119.204 16.1942 124.451 21.3911C129.698 26.588 133.86 32.7578 136.699 39.548C139.539 46.3383 141 53.616 141 60.9657C141 69.0437 139.393 77.0424 136.272 84.5054C133.152 91.9683 128.577 98.7492 122.811 104.461C117.044 110.173 110.198 114.703 102.664 117.794C95.1296 120.885 87.0546 122.476 78.8997 122.475H28V60.9657C28 46.1227 33.9525 31.8876 44.5481 21.392C55.1437 10.8964 69.5144 5 84.4988 5Z" fill="#F0F7FF"/>
<circle cx="82.8218" cy="63.1773" r="41.396" fill="url(#paint0_linear_2079_27567)"/>
<path d="M92.574 41.3191C88.6306 40.044 79.3537 40.3908 77.0352 43.4059C71.005 43.5225 63.9314 48.9727 63.0031 56.1628C62.0853 63.2783 64.1303 66.5833 64.8582 71.9349C65.6834 77.9979 69.0916 79.9367 71.8167 80.7484C75.7377 85.928 79.9053 85.7068 86.9026 85.7068C100.567 85.7068 107.075 76.5644 107.651 61.0345C107.998 51.6409 102.488 44.527 92.574 41.3191Z" fill="#0B0200"/>
<path d="M100.393 61.6949C99.0721 59.8637 97.3784 58.3898 93.6682 57.8681C95.0599 58.5064 96.3933 60.7098 96.5667 61.9266C96.7401 63.1449 96.915 64.13 95.8133 62.9117C91.4006 58.034 86.5946 59.9549 81.8306 56.9742C78.5031 54.8934 77.4911 52.5898 77.4911 52.5898C77.4911 52.5898 77.0845 55.6632 72.0409 58.7934C70.579 59.7008 68.8345 61.7218 67.8658 64.707C67.1707 66.8521 67.386 68.7655 67.386 72.0362C67.386 81.5807 75.2518 89.605 84.9548 89.605C94.6578 89.605 102.524 81.5105 102.524 72.0362C102.524 66.1017 101.902 63.7832 100.393 61.6949Z" fill="#7C533E"/>
<path d="M84.9319 84.5498C81.4235 84.5498 79.5878 82.8158 79.3905 82.617C78.806 82.0325 78.806 81.0878 79.3905 80.5033C79.969 79.9248 80.9048 79.9203 81.4893 80.4883C81.5655 80.5586 82.6941 81.5601 84.9319 81.5601C87.2025 81.5601 88.3296 80.5287 88.3775 80.4853C88.9724 79.9278 89.9127 79.9442 90.4822 80.5287C91.0487 81.1162 91.0502 82.04 90.4732 82.617C90.2759 82.8158 88.4403 84.5498 84.9319 84.5498ZM86.4267 77.0756H83.437C82.6119 77.0756 81.9422 76.4074 81.9422 75.5808C81.9422 74.7541 82.6119 74.0859 83.437 74.0859H86.4267C87.2534 74.0859 87.9215 74.7541 87.9215 75.5808C87.9215 76.4074 87.2534 77.0756 86.4267 77.0756Z" fill="#3D2E24"/>
<path d="M77.4607 71.0926C76.6355 71.0926 75.9658 70.4244 75.9658 69.5978V66.6081C75.9658 65.783 76.6355 65.1133 77.4607 65.1133C78.2858 65.1133 78.9555 65.783 78.9555 66.6081V69.5978C78.9555 70.4244 78.2858 71.0926 77.4607 71.0926ZM92.409 71.0926C91.5824 71.0926 90.9142 70.4244 90.9142 69.5978V66.6081C90.9142 65.783 91.5824 65.1133 92.409 65.1133C93.2357 65.1133 93.9039 65.783 93.9039 66.6081V69.5978C93.9039 70.4244 93.2357 71.0926 92.409 71.0926Z" fill="black"/>
<circle cx="27.9541" cy="98.9531" r="24.5" transform="rotate(-8.32682 27.9541 98.9531)" fill="#67B6FF" stroke="#FBFDFF" stroke-width="5"/>
<path d="M35.3226 102.46L34.4387 96.4208C33.9445 93.0445 31.1828 90.572 27.9206 90.2868L27.8113 89.5402C27.6779 88.6289 26.8329 88.0011 25.9195 88.1348C25.0061 88.2685 24.3765 89.1121 24.5099 90.0234L24.6192 90.77C21.5755 91.9781 19.6382 95.1384 20.1324 98.5147L21.0163 104.554L19.1367 107.072L19.2974 108.17L38.0056 105.432L37.8449 104.334L35.3226 102.46Z" fill="white"/>
<path d="M31.0133 107.578C31.1908 108.792 30.3497 109.919 29.1337 110.097C27.9177 110.274 26.7889 109.436 26.6113 108.223L31.0133 107.578Z" fill="white"/>
<g filter="url(#filter0_d_2079_27567)">
<circle cx="131.107" cy="26.3439" r="15.7658" fill="#0084FF"/>
</g>
<defs>
<filter id="filter0_d_2079_27567" x="85.3408" y="0.578125" width="91.5312" height="91.5312" filterUnits="userSpaceOnUse" color-interpolation-filters="sRGB">
<feFlood flood-opacity="0" result="BackgroundImageFix"/>
<feColorMatrix in="SourceAlpha" type="matrix" values="0 0 0 0 0 0 0 0 0 0 0 0 0 0 0 0 0 0 127 0" result="hardAlpha"/>
<feOffset dy="20"/>
<feGaussianBlur stdDeviation="15"/>
<feColorMatrix type="matrix" values="0 0 0 0 0 0 0 0 0 0.517647 0 0 0 0 1 0 0 0 0.2 0"/>
<feBlend mode="normal" in2="BackgroundImageFix" result="effect1_dropShadow_2079_27567"/>
<feBlend mode="normal" in="SourceGraphic" in2="effect1_dropShadow_2079_27567" result="shape"/>
</filter>
<linearGradient id="paint0_linear_2079_27567" x1="82.8218" y1="21.7812" x2="82.8218" y2="104.573" gradientUnits="userSpaceOnUse">
<stop stop-color="#BDDEFF"/>
<stop offset="1" stop-color="#E7F1FF"/>
</linearGradient>
</defs>
</svg>
