<svg width="37" height="37" viewBox="0 0 37 37" fill="none" xmlns="http://www.w3.org/2000/svg">
<circle cx="18.5" cy="18.5" r="18.5" fill="#67B6FF" fill-opacity="0.2"/>
<path d="M24.4872 11.0154C24.6114 11.0426 24.7252 11.1046 24.8153 11.1941C24.9026 11.2855 24.9622 11.3999 24.987 11.5238C25.0119 11.6477 25.0009 11.7762 24.9554 11.8941L19.6159 26.56C19.57 26.6868 19.4868 26.7966 19.3772 26.8752C19.2676 26.9537 19.1367 26.9972 19.0018 27C18.8682 27.0001 18.7375 26.9602 18.6269 26.8853C18.5162 26.8104 18.4306 26.7041 18.3811 26.58L16.0851 20.8537L20.3367 16.6072L19.3956 15.6672L15.1641 19.907L9.43073 17.6205C9.3041 17.5725 9.19507 17.4872 9.11814 17.3759C9.0412 17.2645 9 17.1325 9 16.9972C9 16.8619 9.0412 16.7298 9.11814 16.6185C9.19507 16.5072 9.3041 16.4219 9.43073 16.3739L24.1144 11.0408C24.2337 10.9971 24.3631 10.9883 24.4872 11.0154Z" fill="#0084FF"/>
</svg>
