<svg width="10" height="13" viewBox="0 0 10 13" fill="none" xmlns="http://www.w3.org/2000/svg">
<path d="M4.83316 2.45393C5.80441 2.45393 6.22924 3.08354 6.26357 4.08474L6.26571 4.21725V5.95954L8.31906 6.25541C8.5845 6.29364 8.83915 6.3847 9.06735 6.52298C9.29556 6.66127 9.49249 6.84387 9.64603 7.05954C9.79957 7.2752 9.90649 7.51939 9.96019 7.77707C10.0139 8.03475 10.0133 8.30047 9.95831 8.5579L9.9297 8.67709L9.05143 11.7915C8.99144 12.0044 8.87393 12.1975 8.71129 12.3504C8.54865 12.5033 8.34692 12.6103 8.12739 12.6602L8.02297 12.6791L5.83373 12.9876C5.57045 13.0246 5.302 12.9784 5.06731 12.8557C4.83261 12.7331 4.64388 12.5403 4.52848 12.3054L4.48557 12.2072L4.33037 11.8062C4.15485 11.352 3.86562 10.9484 3.48929 10.6325L3.3441 10.5182L2.20264 9.67689C2.14291 9.63258 2.07924 9.59363 2.01239 9.5605L1.91012 9.51563L0.340247 8.90706C0.244364 8.87 0.1614 8.80665 0.101279 8.72459C0.0411585 8.64253 0.0064275 8.54522 0.00124066 8.44431C-0.0245067 7.9381 0.351691 7.57072 1.01826 7.24399C1.53249 6.99159 2.25342 7.01262 3.21108 7.27414L3.40561 7.33023V4.21024C3.40561 3.13191 3.819 2.45323 4.83316 2.45323V2.45393ZM4.83316 5.44743e-07C5.51203 -0.00034538 6.18043 0.164067 6.77871 0.478566C7.377 0.793066 7.88656 1.24787 8.26192 1.80239C8.63727 2.35691 8.86676 2.99391 8.9299 3.65653C8.99303 4.31915 8.88785 4.98679 8.62374 5.59986L8.74747 5.62931C8.64097 5.60061 8.53277 5.57837 8.42348 5.5627L7.51732 5.43229C7.78189 4.94484 7.9031 4.3949 7.86742 3.84384C7.83173 3.29278 7.64056 2.76228 7.31523 2.31154C6.9899 1.86079 6.5432 1.50752 6.02499 1.29115C5.50678 1.07478 4.93744 1.00382 4.38048 1.08619C3.82353 1.16856 3.30087 1.40101 2.87084 1.75762C2.4408 2.11422 2.1203 2.58095 1.94509 3.10572C1.76988 3.63049 1.74686 4.19267 1.87859 4.72952C2.01032 5.26637 2.29163 5.75679 2.69112 6.14604L2.69041 6.437C2.25127 6.36058 1.85505 6.34165 1.49459 6.38652C1.05237 5.78422 0.788316 5.07395 0.731516 4.33395C0.674716 3.59395 0.827372 2.85294 1.17267 2.19255C1.51796 1.53215 2.0425 0.978004 2.6885 0.591144C3.33449 0.204284 4.07688 -0.000275171 4.83387 5.44743e-07H4.83316Z" fill="#67B6FF"/>
</svg>
