<svg width="24" height="24" viewBox="0 0 24 24" fill="none" xmlns="http://www.w3.org/2000/svg">
<rect x="7" y="7" width="10" height="9" rx="1" fill="#D1E9FF"/>
<path d="M9 9.19048L12.5484 13L20 5" stroke="#0084FF" stroke-width="2" stroke-linecap="round" stroke-linejoin="round"/>
<path d="M10.6288 3.58301C11.0661 3.58301 11.4205 3.93745 11.4205 4.37467C11.4205 4.8119 11.0661 5.16634 10.6288 5.16634H6.74967C5.87522 5.16634 5.16634 5.87522 5.16634 6.74967V16.2497C5.16634 17.1241 5.87522 17.833 6.74967 17.833H16.2497C17.1241 17.833 17.833 17.1241 17.833 16.2497V14.6663C17.833 14.2291 18.1875 13.8747 18.6247 13.8747C19.0619 13.8747 19.4163 14.2291 19.4163 14.6663V16.2497C19.4163 17.9986 17.9986 19.4163 16.2497 19.4163H6.74967C5.00077 19.4163 3.58301 17.9986 3.58301 16.2497V6.74967C3.58301 5.00077 5.00077 3.58301 6.74967 3.58301H10.6288Z" fill="#92CBFF"/>
</svg>
